<svg xmlns="http://www.w3.org/2000/svg" xmlns:xlink="http://www.w3.org/1999/xlink" viewBox="0 0 100 100"><defs><style>.a{clip-path:url(#d);}.b,.c,.d{fill:none;}.b,.c{stroke:#fff;}.b{stroke-width:2px;}.d{stroke:#707070;}.e,.f{stroke:none;}.g{fill:rgba(255,255,255,0.75);}.h{filter:url(#a);}</style><filter id="a" x="0.1" y="3.85" width="99.803" height="98.32" filterUnits="userSpaceOnUse"><feOffset dy="3" input="SourceAlpha"/><feGaussianBlur stdDeviation="3" result="b"/><feFlood/><feComposite operator="in" in2="b"/><feComposite in="SourceGraphic"/></filter><clipPath id="d"><rect width="100" height="100"/></clipPath></defs><g id="c" class="a"><rect class="g" width="100" height="100"/><g class="h" transform="matrix(1, 0, 0, 1, 0, 0)"><g transform="translate(9.1 9.85)"><path class="e" d="M 40.90127944946289 79.82046508789063 C 35.4457893371582 79.82046508789063 30.15384674072266 78.77149963378906 25.17242431640625 76.70271301269531 C 20.36127853393555 74.70464324951172 16.04046821594238 71.84426879882813 12.33001232147217 68.20103454589844 C 8.62020206451416 64.55843353271484 5.707701683044434 60.31702041625977 3.673434972763062 55.59460067749023 C 1.567701697349548 50.70627593994141 0.5000016689300537 45.51340866088867 0.5000016689300537 40.16023254394531 C 0.5000016689300537 34.80705642700195 1.567701697349548 29.61418724060059 3.673434972763062 24.72587776184082 C 5.707701683044434 20.00345420837402 8.62020206451416 15.7620325088501 12.33001232147217 12.11943244934082 C 16.04046821594238 8.476210594177246 20.36127853393555 5.615832328796387 25.17242431640625 3.617754697799683 C 30.15384674072266 1.548965930938721 35.4457893371582 0.4999992251396179 40.90127944946289 0.4999992251396179 C 46.35676956176758 0.4999992251396179 51.64871215820313 1.548965930938721 56.63013458251953 3.617754697799683 C 61.44128036499023 5.615832328796387 65.76209259033203 8.476210594177246 69.47254943847656 12.11943244934082 C 73.18235778808594 15.7620325088501 76.09485626220703 20.00345420837402 78.12912750244141 24.72587776184082 C 80.23485565185547 29.61418724060059 81.30255889892578 34.80705642700195 81.30255889892578 40.16023254394531 C 81.30255889892578 45.51340866088867 80.23485565185547 50.70627593994141 78.12912750244141 55.59460067749023 C 76.09485626220703 60.31702041625977 73.18235778808594 64.55843353271484 69.47254943847656 68.20103454589844 C 65.76209259033203 71.84426879882813 61.44128036499023 74.70464324951172 56.63013458251953 76.70271301269531 C 51.64871215820313 78.77149963378906 46.35676956176758 79.82046508789063 40.90127944946289 79.82046508789063 Z"/><path class="f" d="M 40.90127944946289 79.32046508789063 C 46.29061126708984 79.32046508789063 51.51803588867188 78.28436279296875 56.43836975097656 76.24095153808594 C 61.19016647338867 74.26752471923828 65.45763397216797 71.44246673583984 69.12223815917969 67.84426879882813 C 72.78556823730469 64.24730682373047 75.66142272949219 60.05937576293945 77.669921875 55.39678955078125 C 79.74858856201172 50.57131195068359 80.80255889892578 45.44498825073242 80.80255889892578 40.16023254394531 C 80.80255889892578 34.8754768371582 79.74858856201172 29.74916648864746 77.669921875 24.9236888885498 C 75.66142272949219 20.26109886169434 72.78556823730469 16.07316589355469 69.12223815917969 12.47619915008545 C 65.45763397216797 8.877999305725098 61.19016647338867 6.052943706512451 56.43836975097656 4.07951021194458 C 51.51803588867188 2.036099195480347 46.29061126708984 0.9999992251396179 40.90127944946289 0.9999992251396179 C 35.51194763183594 0.9999992251396179 30.28452301025391 2.036099195480347 25.36419105529785 4.07951021194458 C 20.61239051818848 6.052943706512451 16.34492301940918 8.877999305725098 12.68032360076904 12.47619915008545 C 9.016990661621094 16.07316589355469 6.141135215759277 20.26109886169434 4.132635116577148 24.9236888885498 C 2.05396842956543 29.74916648864746 1.000001668930054 34.8754768371582 1.000001668930054 40.16023254394531 C 1.000001668930054 45.44498825073242 2.05396842956543 50.57131195068359 4.132635116577148 55.39678955078125 C 6.141135215759277 60.05937576293945 9.016990661621094 64.24730682373047 12.68032360076904 67.84426879882813 C 16.34492301940918 71.44246673583984 20.61239051818848 74.26752471923828 25.36419105529785 76.24095153808594 C 30.28452301025391 78.28436279296875 35.51194763183594 79.32046508789063 40.90127944946289 79.32046508789063 M 40.90127944946289 80.32046508789063 C 18.31212425231934 80.32046508789063 1.671685140536283e-06 62.34012222290039 1.671685140536283e-06 40.16023254394531 C 1.671685140536283e-06 17.98035430908203 18.31212425231934 -7.893880251685914e-07 40.90127944946289 -7.893880251685914e-07 C 63.49043655395508 -7.893880251685914e-07 81.80255889892578 17.98035430908203 81.80255889892578 40.16023254394531 C 81.80255889892578 62.34012222290039 63.49043655395508 80.32046508789063 40.90127944946289 80.32046508789063 Z"/></g></g><g transform="translate(30.42 36.071)"><path class="b" d="M28.5,22.927c19,9.188,19.215,20.992,19.215,20.992" transform="translate(-28.5 -22.927)"/><path class="b" d="M48.378,22.927C28.719,32.116,28.5,43.919,28.5,43.919" transform="translate(-9.285 -22.927)"/><path class="b" d="M49.688,48.63V59.2" transform="translate(-30.473 -26.621)"/></g><g transform="translate(31.188 28.094)"><path class="c" d="M68.876,25.567c-19.3,4.262-19.18,20.3-19.18,20.3" transform="translate(-31.289 -25.567)"/><path class="c" d="M49.7,25.567c18.526,4.262,18.407,20.3,18.407,20.3" transform="translate(-49.696 -25.567)"/></g><g transform="translate(30.3 27.6)"><path class="b" d="M28.043,22.039V66.814" transform="translate(-28.043 -22.038)"/><path class="b" d="M72.982,21.97V66.746" transform="translate(-33.628 -21.97)"/></g><path class="d" d="M29.239,72.376"/></g></svg>